# xmcd
#
# Track frame offsets:
#	150
#	13390
#	26319
#	39037
#	54562
#	68692
#	84760
#	105822
#	123792
#	145412
#
# Disc length: 2179 seconds
#
# Revision: 1
# Processed by: cddbd v1.5.1PL0 Copyright (c) Steve Scherf et al.
# Submitted via: audiograbber 1.83.01
#
DISCID=6c08810a
DTITLE=Various Artist - Real 70s R&B--Disc 2
DYEAR=1900
DGENRE=R&B
TTITLE0=Lunar Funk - Mr Penguin Part 1
TTITLE1=The Nite-Liters - Afro-Strut
TTITLE2=Johnny Griffith, Inc - Grand Central Shuffle
TTITLE3=Jimmy Castor Bunch - Soul Serenade
TTITLE4=Walter Heath - I Am Your Leader
TTITLE5=Mandrill - Funky Monkey
TTITLE6=Quazar - Funk N Roll (Dancin In The "Funkshine")
TTITLE7=Bernie Worrell - Insurance Man For The Funk
TTITLE8=The Memphis Horns - What The Funk
TTITLE9=Aquarian Dream - Phoenix
EXTD=
EXTT0=
EXTT1=
EXTT2=
EXTT3=
EXTT4=
EXTT5=
EXTT6=
EXTT7=
EXTT8=
EXTT9=
PLAYORDER=
